<svg xmlns="http://www.w3.org/2000/svg" viewBox="0 0 256 256" width="48" height="48"><g fill-opacity="0" fill="#ddd" stroke-miterlimit="10" font-family="none" font-weight="none" font-size="none" text-anchor="none" style="mix-blend-mode:normal"><path d="M0 256V0h256v256z" id="bgRectangle"/></g><g stroke-miterlimit="10" font-family="none" font-weight="none" font-size="none" text-anchor="none" style="mix-blend-mode:normal"><path d="M192 224H64c-17.675 0-32-14.325-32-32V64c0-17.675 14.325-32 32-32h128c17.675 0 32 14.325 32 32v128c0 17.675-14.325 32-32 32z" opacity=".35"/><path d="m187.904 168.128-29.461-29.461a63.07 63.07 0 0 1-19.776 19.776l29.461 29.461c5.461 5.461 14.315 5.461 19.776 0s5.461-14.315 0-19.776z"/><path d="M122.667 64C90.26 64 64 90.261 64 122.667c0 32.405 26.261 58.666 58.667 58.666 32.405 0 58.666-26.261 58.666-58.666C181.333 90.26 155.072 64 122.667 64zm0 96c-20.619 0-37.334-16.715-37.334-37.333 0-20.619 16.715-37.334 37.334-37.334 20.618 0 37.333 16.715 37.333 37.334C160 143.285 143.285 160 122.667 160z"/></g></svg>