<svg xmlns="http://www.w3.org/2000/svg" xmlns:xlink="http://www.w3.org/1999/xlink" viewBox="0,0,256,256" width="48px" height="48px"><g fill-opacity="0" fill="#dddddd" fill-rule="nonzero" stroke="none" stroke-width="1" stroke-linecap="butt" stroke-linejoin="miter" stroke-miterlimit="10" stroke-dasharray="" stroke-dashoffset="0" font-family="none" font-weight="none" font-size="none" text-anchor="none" style="mix-blend-mode: normal"><path d="M0,256v-256h256v256z" id="bgRectangle"></path></g><g fill="#000000" fill-rule="nonzero" stroke="none" stroke-width="1" stroke-linecap="butt" stroke-linejoin="miter" stroke-miterlimit="10" stroke-dasharray="" stroke-dashoffset="0" font-family="none" font-weight="none" font-size="none" text-anchor="none" style="mix-blend-mode: normal"><g transform="scale(10.66667,10.66667)"><path d="M18,21h-12c-1.657,0 -3,-1.343 -3,-3v-12c0,-1.657 1.343,-3 3,-3h12c1.657,0 3,1.343 3,3v12c0,1.657 -1.343,3 -3,3z" opacity="0.35"></path><path d="M17.616,15.762c-0.188,-0.188 -2.199,-2.199 -2.762,-2.762c-0.471,0.749 -1.105,1.382 -1.854,1.854c0.563,0.563 2.574,2.574 2.762,2.762c0.512,0.512 1.342,0.512 1.854,0c0.512,-0.512 0.512,-1.342 0,-1.854z"></path><path d="M11.5,6c-3.038,0 -5.5,2.462 -5.5,5.5c0,3.038 2.462,5.5 5.5,5.5c3.038,0 5.5,-2.462 5.5,-5.5c0,-3.038 -2.462,-5.5 -5.5,-5.5zM11.5,15c-1.933,0 -3.5,-1.567 -3.5,-3.5c0,-1.933 1.567,-3.5 3.5,-3.5c1.933,0 3.5,1.567 3.5,3.5c0,1.933 -1.567,3.5 -3.5,3.5z"></path></g></g></svg>